<?xml version="1.0" encoding="utf-8"?>
<!-- Generator: Adobe Illustrator 22.1.0, SVG Export Plug-In . SVG Version: 6.00 Build 0)  -->
<svg version="1.1" id="Layer_1" xmlns="http://www.w3.org/2000/svg" xmlns:xlink="http://www.w3.org/1999/xlink" x="0px" y="0px"
	 viewBox="0 0 461 461" style="enable-background:new 0 0 461 461;" xml:space="preserve">
<style type="text/css">
	.st0{fill:#F9A825;}
	.st1{fill:#FFFFFF;}
</style>
<path class="st0" d="M359,77.5H102c-50.4,0-91.3,40.9-91.3,91.3v128.5c0,50.4,40.9,91.3,91.3,91.3h257c50.4,0,91.3-40.9,91.3-91.3
	V168.8C450.3,118.4,409.4,77.5,359,77.5z"/>
<path class="st1" d="M259.1,236.2l68.1,68.1c1.8,1.8,2.7,4.5,2.7,6.4c0,1.8-0.9,4.5-2.7,6.4l-12.7,12.7c-1.8,1.8-4.5,2.7-6.4,2.7
	c-2.7,0-4.5-0.9-6.4-2.7l-68.1-68.1c-1.8-1.8-4.5-1.8-6.4,0l-68.1,68.1c-1.8,1.8-4.5,2.7-6.4,2.7c-2.7,0-4.5-0.9-6.4-2.7l-12.7-12.7
	c-1.8-1.8-2.7-4.5-2.7-6.4s0.9-4.5,2.7-6.4l68.1-68.1c1.8-1.8,1.8-4.5,0-6.4l-68.1-68.1c-1.8-1.8-2.7-4.5-2.7-6.4
	c0-1.8,0.9-4.5,2.7-6.4l12.7-12.7c1.8-1.8,4.5-2.7,6.4-2.7c1.8,0,4.5,0.9,6.4,2.7l68.1,68.1c1.8,1.8,4.5,1.8,6.4,0l68.1-68.1
	c1.8-1.8,4.5-2.7,6.4-2.7c2.7,0,4.5,0.9,6.4,2.7l12.7,12.7c1.8,1.8,2.7,4.5,2.7,6.4c0,1.8-0.9,4.5-2.7,6.4l-68.1,68.1
	C257.3,230.8,257.3,234.4,259.1,236.2z"/>
</svg>
